<svg width="256" height="256" xmlns="http://www.w3.org/2000/svg">
 <desc>Created with Fabric.js 1.7.22</desc>

 <g>
  <title>background</title>
  <rect fill="none" id="canvas_background" height="402" width="582" y="-1" x="-1"/>
 </g>
 <g>
  <title>Layer 1</title>
  <path fill="#0055ff" id="svg_3" stroke=" none" stroke-linecap="round" d="m116.113405,120.967192l-5.489568,0c-2.296656,0 -4.156387,-1.859731 -4.156387,-4.156387s1.859731,-4.156387 4.156387,-4.156387l5.489568,0c2.296656,0 4.156387,1.859731 4.156387,4.156387s-1.862532,4.156387 -4.156387,4.156387z"/>
  <path fill="#0055ff" id="svg_4" stroke=" none" stroke-linecap="round" d="m253.993998,126.672422c-2.573935,-17.516204 -34.402229,-26.904487 -63.578164,-27.016519c-43.303172,-31.67705 -96.949698,-32.943012 -159.471961,-3.758674l-18.838182,3.142498c-5.876079,0.977479 -10.141697,6.013318 -10.141697,11.97062l0,28.075221c0,2.910031 1.047499,5.724836 2.943641,7.923464l6.539868,7.584567c2.307859,2.677565 5.657616,4.212403 9.192226,4.212403l6.116948,0c2.41429,12.721234 13.597885,22.375593 27.010917,22.375593c13.415833,0 24.599428,-9.654358 27.013718,-22.375593l101.78388,0c2.41429,12.721234 13.597885,22.375593 27.013718,22.375593s24.599428,-9.654358 27.013718,-22.375593l5.304716,0c6.691112,0 12.138668,-5.444756 12.138668,-12.138668l0,-19.39274l-0.042012,-0.602172zm-11.953815,-4.985424l-3.705459,0l-2.403087,-4.220806c2.431095,1.324778 4.517691,2.733581 6.108545,4.220806zm-66.647841,-22.028293l-85.472019,0l-6.713518,-13.169362c34.61509,-7.430523 65.1046,-3.041669 92.185537,13.169362zm-121.621947,73.212917c-10.587025,0 -19.199485,-8.612461 -19.199485,-19.196684c0,-10.587025 8.612461,-19.199485 19.199485,-19.199485c10.587025,0 19.199485,8.612461 19.199485,19.199485c0,10.584224 -8.612461,19.196684 -19.199485,19.196684zm155.811315,0c-10.587025,0 -19.199485,-8.612461 -19.199485,-19.196684c0,-10.587025 8.612461,-19.199485 19.199485,-19.199485s19.199485,8.612461 19.199485,19.199485c0,10.584224 -8.612461,19.196684 -19.199485,19.196684zm32.315633,-22.375593l-5.00503,0c-1.582452,-13.676307 -13.216976,-24.333352 -27.310603,-24.333352s-25.728151,10.657045 -27.310603,24.333352l-101.19011,0c-1.582452,-13.676307 -13.216976,-24.333352 -27.310603,-24.333352c-14.093627,0 -25.728151,10.657045 -27.310603,24.333352l-5.820063,0c-1.114718,0 -2.17062,-0.484538 -2.898828,-1.327579l-6.539868,-7.587368c-0.59657,-0.691798 -0.927065,-1.576851 -0.927065,-2.492712l0,-18.118376l4.534496,0c2.296656,0 4.156387,-1.859731 4.156387,-4.156387s-1.859731,-4.156387 -4.156387,-4.156387l-4.534496,0l0,-1.646871c0,-1.879337 1.344384,-3.467391 3.198514,-3.775479l19.964104,-3.327351l0.518148,-0.24367c14.247671,-6.68551 27.879165,-11.72695 40.944898,-15.171935l8.744098,17.154901l15.863732,32.567705c0.719806,1.476022 2.198628,2.335867 3.739068,2.335867c0.610574,0 1.229551,-0.134438 1.817719,-0.42012c2.06419,-1.005487 2.921235,-3.492598 1.915747,-5.556788l-12.962103,-26.604801l93.650356,0l0.011203,0.008402l1.394798,-0.008402c12.519577,-0.112032 24.64144,1.630066 34.452643,4.526093l8.777708,15.404401c0.742212,1.29677 2.117405,2.097799 3.610231,2.097799l9.808402,0l0,16.670363c0.002801,2.111803 -1.71409,3.828694 -3.825893,3.828694z"/>
  <path fill="#0055ff" id="svg_5" stroke=" none" stroke-linecap="round" d="m209.581709,140.460761c-7.287682,0 -13.214175,5.926493 -13.214175,13.214175c0,7.284881 5.926493,13.211374 13.214175,13.211374s13.214175,-5.926493 13.214175,-13.211374c0,-7.287682 -5.929294,-13.214175 -13.214175,-13.214175zm0,18.115576c-2.705573,0 -4.904201,-2.198628 -4.904201,-4.9014c0,-2.705573 2.198628,-4.904201 4.904201,-4.904201s4.904201,2.198628 4.904201,4.904201c0,2.702772 -2.201429,4.9014 -4.904201,4.9014z"/>
  <path fill="#0055ff" id="svg_6" stroke=" none" stroke-linecap="round" d="m53.770394,140.460761c-7.284881,0 -13.214175,5.926493 -13.214175,13.214175c0,7.284881 5.926493,13.211374 13.214175,13.211374s13.214175,-5.926493 13.214175,-13.211374c0,-7.287682 -5.929294,-13.214175 -13.214175,-13.214175zm0,18.115576c-2.702772,0 -4.904201,-2.198628 -4.904201,-4.9014c0,-2.705573 2.198628,-4.904201 4.904201,-4.904201c2.702772,0 4.904201,2.198628 4.904201,4.904201c0,2.702772 -2.201429,4.9014 -4.904201,4.9014z"/>
 </g>
</svg>